<svg width="129" height="71" viewBox="0 0 129 71" fill="none" xmlns="http://www.w3.org/2000/svg">
<path d="M6.985 38.16C6.07967 38.0293 5.25833 37.964 4.521 37.964C3.78367 37.964 3.233 38.1927 2.869 38.65C2.505 39.1073 2.31833 39.7467 2.309 40.568L2.631 40.456C3.303 40.2413 3.86767 40.134 4.325 40.134C6.41567 40.134 7.461 41.114 7.461 43.074C7.461 44.082 7.17167 44.8473 6.593 45.37C6.01433 45.8927 5.16967 46.154 4.059 46.154C2.94833 46.154 2.10833 45.7433 1.539 44.922C0.979 44.0913 0.699 42.9107 0.699 41.38C0.699 38.1973 1.94967 36.606 4.451 36.606C5.151 36.606 5.907 36.69 6.719 36.858L7.125 36.942L6.985 38.16ZM2.561 41.814L2.295 41.912C2.31367 43.8347 2.92967 44.796 4.143 44.796C4.69367 44.796 5.11367 44.6467 5.403 44.348C5.70167 44.0493 5.851 43.634 5.851 43.102C5.851 42.57 5.70633 42.1733 5.417 41.912C5.12767 41.6413 4.72167 41.506 4.199 41.506C3.68567 41.506 3.13967 41.6087 2.561 41.814ZM8.81298 46V43.984H10.451V46H8.81298ZM16.9786 36.76V46H15.4246V38.524L13.2546 39.924L12.5406 38.762L15.5506 36.76H16.9786ZM21.9006 40.302V46H20.3886V40.302H19.5766V39H20.3886V38.552C20.3886 37.5533 20.5332 36.8673 20.8226 36.494C21.1119 36.1207 21.6252 35.934 22.3626 35.934L23.8746 36.074L23.8606 37.32C23.4032 37.3013 23.0206 37.292 22.7126 37.292C22.4139 37.292 22.2039 37.3853 22.0826 37.572C21.9612 37.7493 21.9006 38.0807 21.9006 38.566V39H23.7486V40.302H21.9006ZM28.6724 40.302H26.7404V43.382C26.7404 43.9513 26.7824 44.3293 26.8664 44.516C26.9504 44.7027 27.1651 44.796 27.5104 44.796L28.6584 44.754L28.7284 45.972C28.1031 46.0933 27.6271 46.154 27.3004 46.154C26.5071 46.154 25.9611 45.972 25.6624 45.608C25.3731 45.244 25.2284 44.558 25.2284 43.55V40.302H24.3324V39H25.2284V36.97H26.7404V39H28.6724V40.302Z" fill="#828282"/>
<line x1="32.2802" y1="24.7197" x2="36.7994" y2="24.7197" stroke="#828282" stroke-width="0.560702" stroke-linecap="round"/>
<line x1="32.2802" y1="57.0342" x2="36.7994" y2="57.0342" stroke="#828282" stroke-width="0.560702" stroke-linecap="round"/>
<line x1="34.2802" y1="25.2804" x2="34.2802" y2="56.7197" stroke="#828282" stroke-width="0.560702" stroke-linecap="square"/>
<line x1="87.2804" y1="13.1583" x2="87.2803" y2="18.0911" stroke="#828282" stroke-width="0.560702" stroke-linecap="round"/>
<line x1="41.2858" y1="13.1593" x2="41.2858" y2="18.092" stroke="#828282" stroke-width="0.560702" stroke-linecap="round"/>
<line x1="86.7196" y1="15.5128" x2="41.2803" y2="15.5128" stroke="#828282" stroke-width="0.560702" stroke-linecap="square"/>
<path d="M58.472 9.796C59.8907 9.796 60.6093 8.9 60.628 7.108L60.292 7.22C59.5827 7.46267 59.0133 7.584 58.584 7.584C57.576 7.584 56.806 7.346 56.274 6.87C55.742 6.38467 55.476 5.66133 55.476 4.7C55.476 3.73867 55.77 2.98267 56.358 2.432C56.9553 1.88133 57.7627 1.606 58.78 1.606C59.9467 1.606 60.8147 2.02133 61.384 2.852C61.9533 3.68267 62.238 4.91 62.238 6.534C62.238 8.158 61.916 9.334 61.272 10.062C60.6373 10.79 59.704 11.154 58.472 11.154C57.772 11.154 57.016 11.07 56.204 10.902L55.798 10.818L55.938 9.6C56.8433 9.73067 57.688 9.796 58.472 9.796ZM58.71 6.212C59.242 6.212 59.788 6.10933 60.348 5.904L60.642 5.806C60.6233 3.91133 60.0027 2.964 58.78 2.964C58.248 2.964 57.8327 3.118 57.534 3.426C57.2353 3.734 57.086 4.154 57.086 4.686C57.086 5.70333 57.6273 6.212 58.71 6.212ZM65.592 5.302V11H64.08V5.302H63.268V4H64.08V3.552C64.08 2.55333 64.2247 1.86733 64.514 1.494C64.8033 1.12067 65.3167 0.933999 66.054 0.933999L67.566 1.074L67.552 2.32C67.0947 2.30133 66.712 2.292 66.404 2.292C66.1053 2.292 65.8953 2.38533 65.774 2.572C65.6527 2.74933 65.592 3.08067 65.592 3.566V4H67.44V5.302H65.592ZM72.3638 5.302H70.4318V8.382C70.4318 8.95133 70.4738 9.32933 70.5578 9.516C70.6418 9.70267 70.8565 9.796 71.2018 9.796L72.3498 9.754L72.4198 10.972C71.7945 11.0933 71.3185 11.154 70.9918 11.154C70.1985 11.154 69.6525 10.972 69.3538 10.608C69.0645 10.244 68.9198 9.558 68.9198 8.55V5.302H68.0238V4H68.9198V1.97H70.4318V4H72.3638V5.302Z" fill="#828282"/>
<path d="M40.4891 52.3735V49.7979V46.7796L123.189 43.6406L124.839 46.7796L126.127 54.5466L115.463 55.6332L68.0156 54.3856L58.3169 55.6332L54.1316 53.7417H44.8756V52.3735H40.4891Z" fill="#1F1F31"/>
<path d="M39.1208 60.4624H128.381" stroke="#1F1F31" stroke-width="0.80487" stroke-linecap="round"/>
<path d="M86.0843 51.7098L84.4469 47.6942C84.439 47.6749 84.4349 47.6542 84.4349 47.6334V45.0894C84.4349 45.0005 84.507 44.9284 84.5959 44.9284H88.1373C88.2262 44.9284 88.2983 45.0005 88.2983 45.0894V51.6491C88.2983 51.738 88.2262 51.81 88.1373 51.81H86.2334C86.1679 51.81 86.109 51.7704 86.0843 51.7098Z" fill="white"/>
<path d="M124.855 47.0553C124.929 47.143 125.054 47.1672 125.154 47.1133C125.255 47.0594 125.304 46.9422 125.272 46.8325L124.366 43.7365C124.009 42.5173 122.969 41.622 121.71 41.4507L112.732 40.2291C112.204 40.1573 111.732 39.8615 111.438 39.4174L106.084 31.3376C105.562 30.5499 104.697 30.0566 103.754 30.0084L91.2147 29.3678C89.6506 29.2878 88.3385 30.5345 88.3385 32.1008V51.4076C88.3385 51.7632 88.6268 52.0515 88.9824 52.0515H109.412C110.408 52.0515 111.341 51.5667 111.914 50.752L114.635 46.8818C115.283 45.9599 116.339 45.4113 117.466 45.4113H123.404C123.452 45.4113 123.497 45.4324 123.527 45.469L124.855 47.0553Z" fill="white" stroke="#1F1F31" stroke-width="0.482922" stroke-linejoin="round"/>
<path d="M95.7031 39.4553V33.0968C95.7031 33.0079 95.7752 32.9359 95.8641 32.9359H103.872C103.993 32.9359 104.104 33.0041 104.159 33.1123L107.336 39.3825C107.39 39.4896 107.312 39.6163 107.192 39.6163H95.8641C95.7752 39.6163 95.7031 39.5442 95.7031 39.4553Z" fill="#A5A7BB" stroke="black" stroke-width="0.482922"/>
<path d="M63.6013 60.06C66.8723 60.06 69.5239 57.4114 69.5239 54.1442C69.5239 50.877 66.8723 48.2285 63.6013 48.2285C60.3304 48.2285 57.6788 50.877 57.6788 54.1442C57.6788 57.4114 60.3304 60.06 63.6013 60.06Z" fill="#1F1F31"/>
<path d="M63.5776 57.0409C65.1521 57.0409 66.4284 55.766 66.4284 54.1934C66.4284 52.6208 65.1521 51.3459 63.5776 51.3459C62.0032 51.3459 60.7269 52.6208 60.7269 54.1934C60.7269 55.766 62.0032 57.0409 63.5776 57.0409Z" fill="#ADB2BF"/>
<path d="M63.5776 55.5087C64.3049 55.5087 64.8944 54.9199 64.8944 54.1935C64.8944 53.467 64.3049 52.8782 63.5776 52.8782C62.8504 52.8782 62.2608 53.467 62.2608 54.1935C62.2608 54.9199 62.8504 55.5087 63.5776 55.5087Z" fill="#1F1F31"/>
<path d="M61.8741 53.4544C62.0923 53.4544 62.2691 53.2778 62.2691 53.0598C62.2691 52.8419 62.0923 52.6653 61.8741 52.6653C61.6559 52.6653 61.4791 52.8419 61.4791 53.0598C61.4791 53.2778 61.6559 53.4544 61.8741 53.4544Z" fill="#1F1F31"/>
<path d="M65.2302 53.4544C65.4484 53.4544 65.6252 53.2778 65.6252 53.0598C65.6252 52.8419 65.4484 52.6653 65.2302 52.6653C65.012 52.6653 64.8352 52.8419 64.8352 53.0598C64.8352 53.2778 65.012 53.4544 65.2302 53.4544Z" fill="#1F1F31"/>
<path d="M61.8741 55.8207C62.0923 55.8207 62.2691 55.6441 62.2691 55.4262C62.2691 55.2083 62.0923 55.0316 61.8741 55.0316C61.6559 55.0316 61.4791 55.2083 61.4791 55.4262C61.4791 55.6441 61.6559 55.8207 61.8741 55.8207Z" fill="#1F1F31"/>
<path d="M65.2302 55.8207C65.4484 55.8207 65.6252 55.6441 65.6252 55.4262C65.6252 55.2083 65.4484 55.0316 65.2302 55.0316C65.0121 55.0316 64.8352 55.2083 64.8352 55.4262C64.8352 55.6441 65.0121 55.8207 65.2302 55.8207Z" fill="#1F1F31"/>
<path d="M119.443 60.06C122.714 60.06 125.365 57.4114 125.365 54.1442C125.365 50.877 122.714 48.2285 119.443 48.2285C116.172 48.2285 113.52 50.877 113.52 54.1442C113.52 57.4114 116.172 60.06 119.443 60.06Z" fill="#1F1F31"/>
<path d="M119.419 57.0409C120.993 57.0409 122.27 55.766 122.27 54.1934C122.27 52.6208 120.993 51.3459 119.419 51.3459C117.845 51.3459 116.568 52.6208 116.568 54.1934C116.568 55.766 117.845 57.0409 119.419 57.0409Z" fill="#ADB2BF"/>
<path d="M119.419 55.5087C120.146 55.5087 120.736 54.9199 120.736 54.1935C120.736 53.467 120.146 52.8782 119.419 52.8782C118.692 52.8782 118.102 53.467 118.102 54.1935C118.102 54.9199 118.692 55.5087 119.419 55.5087Z" fill="#1F1F31"/>
<path d="M117.715 53.4544C117.934 53.4544 118.11 53.2778 118.11 53.0598C118.11 52.8419 117.934 52.6653 117.715 52.6653C117.497 52.6653 117.32 52.8419 117.32 53.0598C117.32 53.2778 117.497 53.4544 117.715 53.4544Z" fill="#1F1F31"/>
<path d="M121.071 53.4544C121.29 53.4544 121.466 53.2778 121.466 53.0598C121.466 52.8419 121.29 52.6653 121.071 52.6653C120.853 52.6653 120.676 52.8419 120.676 53.0598C120.676 53.2778 120.853 53.4544 121.071 53.4544Z" fill="#1F1F31"/>
<path d="M117.715 55.8207C117.934 55.8207 118.11 55.6441 118.11 55.4262C118.11 55.2083 117.934 55.0316 117.715 55.0316C117.497 55.0316 117.32 55.2083 117.32 55.4262C117.32 55.6441 117.497 55.8207 117.715 55.8207Z" fill="#1F1F31"/>
<path d="M121.071 55.8207C121.29 55.8207 121.466 55.6441 121.466 55.4262C121.466 55.2083 121.29 55.0316 121.071 55.0316C120.853 55.0316 120.676 55.2083 120.676 55.4262C120.676 55.6441 120.853 55.8207 121.071 55.8207Z" fill="#1F1F31"/>
<path d="M79.1228 51.3674L78.6801 47.343L82.463 46.7796L81.8996 51.3674H79.1228Z" fill="white"/>
<path d="M73.6497 51.4076L74.0924 47.4235H76.7887L76.4667 51.4076H73.6497Z" fill="white"/>
<rect x="40.4891" y="36.92" width="46.8434" height="11.0267" rx="0.402435" fill="white" stroke="#1F1F31" stroke-width="0.482922"/>
<rect x="89.8276" y="42.7553" width="3.46094" height="0.965844" rx="0.160974" fill="#1F1F31"/>
<rect x="96.0251" y="40.2601" width="2.33412" height="0.965844" rx="0.160974" fill="#1F1F31"/>
<path d="M89.9766 32.9236C89.9832 32.7062 90.1614 32.5334 90.3788 32.5334H93.047C93.2693 32.5334 93.4495 32.7136 93.4495 32.9359V40.0187C93.4495 40.241 93.2693 40.4212 93.047 40.4212H90.162C89.9349 40.4212 89.7528 40.2334 89.7598 40.0064L89.9766 32.9236Z" fill="#1F1F31"/>
<path d="M40.6903 45.5723H86.9703" stroke="#1F1F31" stroke-width="0.482922"/>
<path d="M40.7305 42.9968H87.0105" stroke="#1F1F31" stroke-width="0.482922"/>
<path d="M40.65 40.2601H87.1715" stroke="#1F1F31" stroke-width="0.482922"/>
<path d="M94.3348 32.292C94.3348 31.9364 94.6231 31.6481 94.9787 31.6481H104.865C104.927 31.6481 104.984 31.6841 105.01 31.7405L108.727 39.6377C108.737 39.6591 108.742 39.6825 108.742 39.7062V49.4357C108.742 50.058 108.238 50.5625 107.615 50.5625H96.9104C95.488 50.5625 94.3348 49.4094 94.3348 47.9869V32.292Z" stroke="#1F1F31" stroke-width="0.482922"/>
<rect x="85.5618" y="27.8652" width="1.77071" height="20.0413" rx="0.160974" fill="white" stroke="#1F1F31" stroke-width="0.482922"/>
<path d="M125.242 47.2829C125.212 47.1629 124.016 45.4041 123.299 44.3613C123.231 44.2619 123.293 44.1264 123.414 44.124C125.656 44.08 125.281 47.438 125.242 47.2829Z" fill="#1F1F31" stroke="#1F1F31" stroke-width="0.080487"/>
<path d="M125.775 54.1316C125.859 52.1695 124.866 48.925 124.277 47.3188C124.238 47.213 124.316 47.1016 124.429 47.1016H124.525C124.571 47.1016 124.615 47.1216 124.646 47.1565L125.133 47.7126C125.151 47.7341 125.176 47.7502 125.203 47.7593L126.862 48.3124C126.928 48.3343 126.972 48.3958 126.972 48.4651V52.7021C126.972 52.7242 126.968 52.7461 126.959 52.7664L126.33 54.2085C126.305 54.2672 126.247 54.3051 126.183 54.3051H125.939C125.845 54.3051 125.772 54.2254 125.775 54.1316Z" fill="white" stroke="#1F1F31" stroke-width="0.482922"/>
<rect x="76.7887" y="53.621" width="8.77308" height="1.69023" fill="white" stroke="#1F1F31" stroke-width="0.482922"/>
<rect x="100.452" y="53.4601" width="8.77308" height="1.12682" fill="white" stroke="#1F1F31" stroke-width="0.482922"/>
<path d="M40.4891 50.482V47.9869H42.5415C42.6304 47.9869 42.7025 48.059 42.7025 48.1479V49.1276C42.7025 49.1703 42.6855 49.2112 42.6553 49.2414L41.3008 50.5959C41.2706 50.626 41.2297 50.643 41.187 50.643H40.65C40.5611 50.643 40.4891 50.5709 40.4891 50.482Z" fill="white" stroke="#1F1F31" stroke-width="0.482922"/>
<path d="M107.431 38.2835H106.724C106.553 38.2835 106.415 38.4218 106.415 38.5924V40.1811C106.415 40.3517 106.553 40.49 106.724 40.49H107.431C107.602 40.49 107.74 40.3517 107.74 40.1811V38.5924C107.74 38.4218 107.602 38.2835 107.431 38.2835Z" fill="#1F1F31"/>
<path d="M105.929 36.9603H106.389C107.133 36.9603 107.74 37.5646 107.74 38.31V39.0114C107.74 39.2584 107.538 39.4598 107.291 39.4598H105.186C104.939 39.4598 104.737 39.2584 104.737 39.0114V38.1527C104.737 37.4955 105.271 36.9617 105.929 36.9617V36.9603Z" fill="#1F1F31"/>
<path d="M113.732 40.5016V47.1015" stroke="#1F1F31" stroke-width="0.482922"/>
<path d="M113.652 42.0711L123.552 42.2321" stroke="#1F1F31" stroke-width="0.482922"/>
<path d="M121.796 44.6069L121.789 44.6064H121.781H116.615C114.714 44.6064 113.014 45.7291 112.147 47.4045C111.756 48.1597 111.349 48.8945 110.98 49.4729C110.795 49.7623 110.623 50.0086 110.469 50.1973C110.31 50.3918 110.187 50.5044 110.105 50.5504L110.223 50.7611L110.105 50.5504C110.042 50.5857 109.97 50.6376 109.911 50.7056C109.853 50.7717 109.788 50.8751 109.788 51.0077V51.579C109.788 51.7329 109.886 51.9197 110.094 51.9561C110.748 52.0704 111.788 51.5362 112.629 49.4035C113.18 48.006 113.881 47.0903 114.628 46.5243C115.373 45.9595 116.176 45.7333 116.952 45.7333H122.727C122.914 45.766 123.223 45.8557 123.536 46.0214C123.854 46.1896 124.158 46.4269 124.351 46.7442C124.461 46.9248 124.535 47.0432 124.582 47.1144C124.604 47.1484 124.624 47.1777 124.64 47.1983L124.64 47.1987C124.643 47.2026 124.666 47.2334 124.7 47.2575C124.71 47.2645 124.739 47.2851 124.783 47.2962C124.834 47.3089 124.932 47.3128 125.012 47.2337C125.076 47.1711 125.082 47.0975 125.084 47.0778C125.086 47.0502 125.083 47.0284 125.081 47.0188C125.076 46.9876 125.064 46.9608 125.062 46.9545L125.061 46.9537C125.057 46.942 125.051 46.9299 125.046 46.9188C125.035 46.8963 125.022 46.8691 125.007 46.8404C124.978 46.785 124.942 46.7175 124.907 46.6531C124.741 45.9587 123.891 44.7399 121.796 44.6069ZM124.615 47.1376C124.616 47.1407 124.616 47.14 124.614 47.1364C124.615 47.137 124.615 47.1374 124.615 47.1376Z" fill="white" stroke="#1F1F31" stroke-width="0.482922"/>
</svg>
