<svg width="111" height="71" viewBox="0 0 111 71" fill="none" xmlns="http://www.w3.org/2000/svg">
<line x1="71.2804" y1="32.2804" x2="71.2803" y2="37.4195" stroke="#828282" stroke-width="0.560702" stroke-linecap="round"/>
<line x1="26.2804" y1="32.2804" x2="26.2803" y2="37.4195" stroke="#828282" stroke-width="0.560702" stroke-linecap="round"/>
<path d="M70.7144 34.7236L26.5082 34.7232" stroke="#828282" stroke-width="0.560702" stroke-linecap="square"/>
<path d="M44.86 21.16C43.9547 21.0293 43.1333 20.964 42.396 20.964C41.6587 20.964 41.108 21.1927 40.744 21.65C40.38 22.1073 40.1933 22.7467 40.184 23.568L40.506 23.456C41.178 23.2413 41.7427 23.134 42.2 23.134C44.2907 23.134 45.336 24.114 45.336 26.074C45.336 27.082 45.0467 27.8473 44.468 28.37C43.8893 28.8927 43.0447 29.154 41.934 29.154C40.8233 29.154 39.9833 28.7433 39.414 27.922C38.854 27.0913 38.574 25.9107 38.574 24.38C38.574 21.1973 39.8247 19.606 42.326 19.606C43.026 19.606 43.782 19.69 44.594 19.858L45 19.942L44.86 21.16ZM40.436 24.814L40.17 24.912C40.1887 26.8347 40.8047 27.796 42.018 27.796C42.5687 27.796 42.9887 27.6467 43.278 27.348C43.5767 27.0493 43.726 26.634 43.726 26.102C43.726 25.57 43.5813 25.1733 43.292 24.912C43.0027 24.6413 42.5967 24.506 42.074 24.506C41.5607 24.506 41.0147 24.6087 40.436 24.814ZM48.592 23.302V29H47.08V23.302H46.268V22H47.08V21.552C47.08 20.5533 47.2247 19.8673 47.514 19.494C47.8033 19.1207 48.3167 18.934 49.054 18.934L50.566 19.074L50.552 20.32C50.0947 20.3013 49.712 20.292 49.404 20.292C49.1053 20.292 48.8953 20.3853 48.774 20.572C48.6527 20.7493 48.592 21.0807 48.592 21.566V22H50.44V23.302H48.592ZM55.3638 23.302H53.4318V26.382C53.4318 26.9513 53.4738 27.3293 53.5578 27.516C53.6418 27.7027 53.8565 27.796 54.2018 27.796L55.3498 27.754L55.4198 28.972C54.7945 29.0933 54.3185 29.154 53.9918 29.154C53.1985 29.154 52.6525 28.972 52.3538 28.608C52.0645 28.244 51.9198 27.558 51.9198 26.55V23.302H51.0238V22H51.9198V19.97H53.4318V22H55.3638V23.302Z" fill="#828282"/>
<path d="M97.5225 70.0006C100.823 70.0006 103.498 67.1587 103.498 63.653C103.498 60.1473 100.823 57.3054 97.5225 57.3054C94.2225 57.3054 91.5473 60.1473 91.5473 63.653C91.5473 67.1587 94.2225 70.0006 97.5225 70.0006Z" fill="#1F1F31"/>
<path d="M97.4977 66.7616C99.0862 66.7616 100.374 65.3937 100.374 63.7063C100.374 62.0189 99.0862 60.651 97.4977 60.651C95.9093 60.651 94.6216 62.0189 94.6216 63.7063C94.6216 65.3937 95.9093 66.7616 97.4977 66.7616Z" fill="#707582"/>
<path d="M97.5008 65.1173C98.2345 65.1173 98.8293 64.4855 98.8293 63.706C98.8293 62.9266 98.2345 62.2947 97.5008 62.2947C96.767 62.2947 96.1723 62.9266 96.1723 63.706C96.1723 64.4855 96.767 65.1173 97.5008 65.1173Z" fill="#1F1F31"/>
<path d="M95.6952 62.9444C95.9152 62.9444 96.0936 62.7549 96.0936 62.5212C96.0936 62.2875 95.9152 62.0981 95.6952 62.0981C95.4752 62.0981 95.2969 62.2875 95.2969 62.5212C95.2969 62.7549 95.4752 62.9444 95.6952 62.9444Z" fill="#1F1F31"/>
<path d="M99.0812 62.9444C99.3012 62.9444 99.4795 62.7549 99.4795 62.5212C99.4795 62.2875 99.3012 62.0981 99.0812 62.0981C98.8611 62.0981 98.6828 62.2875 98.6828 62.5212C98.6828 62.7549 98.8611 62.9444 99.0812 62.9444Z" fill="#1F1F31"/>
<path d="M95.6952 65.4833C95.9152 65.4833 96.0936 65.2939 96.0936 65.0602C96.0936 64.8264 95.9152 64.637 95.6952 64.637C95.4752 64.637 95.2969 64.8264 95.2969 65.0602C95.2969 65.2939 95.4752 65.4833 95.6952 65.4833Z" fill="#1F1F31"/>
<path d="M99.0812 65.4833C99.3012 65.4833 99.4795 65.2939 99.4795 65.0602C99.4795 64.8264 99.3012 64.637 99.0812 64.637C98.8611 64.637 98.6828 64.8264 98.6828 65.0602C98.6828 65.2939 98.8611 65.4833 99.0812 65.4833Z" fill="#1F1F31"/>
<path d="M98.7295 52.2265C97.203 51.8493 95.993 50.278 95.5788 49.5394L91.3631 58.9677C93.2269 59.2034 95.5788 58.1663 96.5107 57.3177C97.2562 56.6389 101.229 56.5635 103.123 56.6106C103.522 54.3007 100.638 52.6979 98.7295 52.2265Z" fill="#1F1F31"/>
<path d="M44.6671 62.2383L27.0029 52.6533C26.7848 52.535 26.8627 52.2044 27.1107 52.1959L71.0506 50.6797C71.1884 50.675 71.3026 50.7853 71.3026 50.9231V58.4415C71.3026 58.576 71.1935 58.685 71.059 58.685H64.3829C64.3516 58.685 64.3207 58.6911 64.2917 58.7027L55.5043 62.2501C55.4753 62.2618 55.4443 62.2678 55.4131 62.2678H44.7833C44.7427 62.2678 44.7028 62.2576 44.6671 62.2383Z" fill="#1F1F31"/>
<path d="M61.5425 58.5929L74.7665 62.0813V45.6762H61.5425V58.5929Z" fill="#1F1F31"/>
<path d="M70.1624 45.0156H26.3833C25.7528 45.0156 25.2417 45.1467 25.2417 45.3085V53.8681C25.2417 54.0299 25.7528 54.161 26.3833 54.161H70.1624C70.7928 54.161 71.3039 54.0299 71.3039 53.8681V45.3085C71.3039 45.1467 70.7928 45.0156 70.1624 45.0156Z" fill="white" stroke="#1F1F31" stroke-width="0.730643" stroke-miterlimit="10"/>
<path d="M25.2883 49.116H71.2175" stroke="#1F1F31" stroke-width="0.730643"/>
<path d="M73.2562 59.6013V29.7705C73.2562 29.0356 73.542 28.3295 74.0532 27.8015C74.5665 27.2714 75.266 26.9618 76.0038 26.947C77.9151 26.9089 80.8959 26.8832 83.1077 26.9747C85.8412 27.0879 87.7375 28.6247 88.344 29.3789C90.6368 33.0245 95.3998 40.8625 96.1098 43.0499C96.9973 45.7841 95.5773 51.8653 94.2904 57.2394C93.2609 61.5386 89.8972 62.2992 88.344 62.142H75.797C75.5249 62.142 75.2546 62.0984 74.9965 62.0126C73.9575 61.6677 73.2562 60.696 73.2562 59.6013Z" fill="white" stroke="#1F1F31" stroke-width="0.730643"/>
<path d="M49.6761 69.9609C52.9761 69.9609 55.6514 67.119 55.6514 63.6133C55.6514 60.1076 52.9761 57.2656 49.6761 57.2656C46.3761 57.2656 43.7008 60.1076 43.7008 63.6133C43.7008 67.119 46.3761 69.9609 49.6761 69.9609Z" fill="#1F1F31"/>
<path d="M49.6513 66.7219C51.2397 66.7219 52.5274 65.354 52.5274 63.6666C52.5274 61.9792 51.2397 60.6113 49.6513 60.6113C48.0629 60.6113 46.7752 61.9792 46.7752 63.6666C46.7752 65.354 48.0629 66.7219 49.6513 66.7219Z" fill="#707582"/>
<path d="M49.6543 65.0794C50.388 65.0794 50.9828 64.4475 50.9828 63.6681C50.9828 62.8887 50.388 62.2568 49.6543 62.2568C48.9206 62.2568 48.3258 62.8887 48.3258 63.6681C48.3258 64.4475 48.9206 65.0794 49.6543 65.0794Z" fill="#1F1F31"/>
<path d="M47.9325 62.906C48.1525 62.906 48.3309 62.7165 48.3309 62.4828C48.3309 62.2491 48.1525 62.0596 47.9325 62.0596C47.7125 62.0596 47.5342 62.2491 47.5342 62.4828C47.5342 62.7165 47.7125 62.906 47.9325 62.906Z" fill="#1F1F31"/>
<path d="M51.3176 62.906C51.5376 62.906 51.7159 62.7165 51.7159 62.4828C51.7159 62.2491 51.5376 62.0596 51.3176 62.0596C51.0976 62.0596 50.9192 62.2491 50.9192 62.4828C50.9192 62.7165 51.0976 62.906 51.3176 62.906Z" fill="#1F1F31"/>
<path d="M47.9325 65.4433C48.1525 65.4433 48.3309 65.2538 48.3309 65.0201C48.3309 64.7864 48.1525 64.5969 47.9325 64.5969C47.7125 64.5969 47.5342 64.7864 47.5342 65.0201C47.5342 65.2538 47.7125 65.4433 47.9325 65.4433Z" fill="#1F1F31"/>
<path d="M51.3176 65.4433C51.5376 65.4433 51.7159 65.2538 51.7159 65.0201C51.7159 64.7864 51.5376 64.5969 51.3176 64.5969C51.0976 64.5969 50.9192 64.7864 50.9192 65.0201C50.9192 65.2538 51.0976 65.4433 51.3176 65.4433Z" fill="#1F1F31"/>
<path d="M24 69.9964H110.001" stroke="#1F1F31" stroke-width="0.730643" stroke-linecap="round"/>
<mask id="path-26-inside-1_6_414" fill="white">
<rect x="60.298" y="54.8197" width="6.74513" height="5.27981" rx="0.608869"/>
</mask>
<rect x="60.298" y="54.8197" width="6.74513" height="5.27981" rx="0.608869" fill="white" stroke="#1F1F31" stroke-width="1.46129" mask="url(#path-26-inside-1_6_414)"/>
<path d="M75.9573 30.4081L75.4765 62.0316H84.5935C86.4007 62.0316 87.8941 60.623 87.9927 58.8186C88.2662 53.8089 88.6117 46.9515 88.6117 44.825C88.6117 42.2598 86.2933 34.2642 85.0356 30.2672C84.9719 30.0647 84.7844 29.9284 84.5722 29.9284H76.4444C76.1782 29.9284 75.9614 30.142 75.9573 30.4081Z" fill="white" stroke="#1F1F31" stroke-width="0.730643"/>
<path d="M77.2509 40.635V32.1416C77.2509 31.8054 77.5235 31.5328 77.8598 31.5328H83.6728C83.9482 31.5328 84.1894 31.7177 84.2608 31.9837L86.0885 38.7902C86.4208 40.0279 85.4883 41.2438 84.2068 41.2438H77.8598C77.5235 41.2438 77.2509 40.9712 77.2509 40.635Z" fill="#9499A3" stroke="#1F1F31" stroke-width="0.730643"/>
<path d="M81.3352 31.7217V41.2442" stroke="#1F1F31" stroke-width="0.730643"/>
<rect width="2.92881" height="0.848541" rx="0.424271" transform="matrix(1 0 0 -1 77.9618 45.0147)" fill="#1F1F31"/>
<path d="M96.7876 44.7318H93.9228C93.5865 44.7318 93.3139 45.0044 93.3139 45.3407V47.8414C93.3139 48.0218 93.3939 48.1928 93.5322 48.3085L95.23 49.7284C95.3396 49.82 95.4778 49.8702 95.6206 49.8702H96.7876C97.1239 49.8702 97.3965 49.5976 97.3965 49.2613V45.3407C97.3965 45.0044 97.1239 44.7318 96.7876 44.7318Z" fill="#1F1F31" stroke="#1F1F31" stroke-width="0.730643"/>
<path d="M88.4347 43.506C90.6387 43.4746 94.6473 43.4117 95.9342 42.6574" stroke="#1F1F31" stroke-width="1.21774"/>
<path fill-rule="evenodd" clip-rule="evenodd" d="M88.7513 30.1588C90.6732 33.2424 93.7161 38.2733 95.219 41.2363C95.0845 41.2342 94.8919 41.2418 94.6551 41.2512C94.1076 41.2728 93.3244 41.3037 92.4807 41.2459C92.3345 41.2358 92.1983 41.2277 92.071 41.22C90.8211 41.1448 90.4302 41.1213 89.8365 39.9185C89.8237 39.8926 89.8127 39.8654 89.8039 39.838C89.2575 38.1414 88.4451 35.8144 87.7777 33.9029C87.6856 33.639 87.5962 33.3829 87.5106 33.1376C86.8232 31.1658 87.883 30.3902 88.5552 30.2288C88.5981 30.2185 88.6405 30.2061 88.6811 30.1888L88.7513 30.1588Z" fill="#9499A3"/>
<path d="M88.7513 30.1588L89.0613 29.9655L88.8957 29.6998L88.6077 29.8228L88.7513 30.1588ZM95.219 41.2363L95.2134 41.6016L95.8186 41.6108L95.5448 41.071L95.219 41.2363ZM94.6551 41.2512L94.6695 41.6162H94.6695L94.6551 41.2512ZM92.4807 41.2459L92.4557 41.6103H92.4557L92.4807 41.2459ZM92.071 41.22L92.0491 41.5847H92.0491L92.071 41.22ZM89.8365 39.9185L90.1641 39.7568L90.1641 39.7568L89.8365 39.9185ZM89.8039 39.838L90.1516 39.726L90.1516 39.726L89.8039 39.838ZM87.7777 33.9029L87.4328 34.0233L87.7777 33.9029ZM87.5106 33.1376L87.8556 33.0173L87.5106 33.1376ZM88.5552 30.2288L88.4699 29.8735L88.4699 29.8735L88.5552 30.2288ZM88.6811 30.1888L88.8246 30.5247L88.8246 30.5247L88.6811 30.1888ZM88.4412 30.352C90.3638 33.4367 93.3985 38.4548 94.8932 41.4016L95.5448 41.071C94.0336 38.0918 90.9825 33.0481 89.0613 29.9655L88.4412 30.352ZM95.2246 40.871C95.0776 40.8688 94.8727 40.877 94.6407 40.8862L94.6695 41.6162C94.911 41.6067 95.0915 41.5997 95.2134 41.6016L95.2246 40.871ZM94.6407 40.8862C94.0926 40.9078 93.3274 40.9378 92.5057 40.8814L92.4557 41.6103C93.3213 41.6697 94.1226 41.6378 94.6695 41.6162L94.6407 40.8862ZM92.5057 40.8814C92.3578 40.8713 92.2201 40.863 92.093 40.8553L92.0491 41.5847C92.1765 41.5923 92.3113 41.6004 92.4557 41.6103L92.5057 40.8814ZM92.093 40.8553C91.4392 40.816 91.1179 40.7899 90.8723 40.6659C90.6538 40.5557 90.4521 40.3403 90.1641 39.7568L89.5089 40.0802C89.8146 40.6995 90.1051 41.0972 90.5431 41.3182C90.9538 41.5255 91.453 41.5488 92.0491 41.5847L92.093 40.8553ZM90.1641 39.7568C90.1594 39.7472 90.1551 39.7367 90.1516 39.726L89.4562 39.9499C89.4704 39.9942 89.4881 40.038 89.5089 40.0802L90.1641 39.7568ZM90.1516 39.726C89.6036 38.0242 88.7895 35.6925 88.1226 33.7825L87.4328 34.0233C88.1007 35.9363 88.9115 38.2585 89.4562 39.9499L90.1516 39.726ZM88.1226 33.7825C88.0305 33.5185 87.9411 33.2626 87.8556 33.0173L87.1657 33.2579C87.2512 33.5033 87.3407 33.7594 87.4328 34.0233L88.1226 33.7825ZM87.8556 33.0173C87.5365 32.1021 87.6432 31.5305 87.8403 31.1855C88.0432 30.8301 88.3806 30.6464 88.6405 30.584L88.4699 29.8735C88.0575 29.9725 87.5289 30.2573 87.2058 30.8231C86.8768 31.3991 86.7973 32.2013 87.1657 33.2579L87.8556 33.0173ZM88.6405 30.584C88.6938 30.5712 88.7579 30.5532 88.8246 30.5247L88.5375 29.8528C88.523 29.859 88.5024 29.8657 88.4699 29.8735L88.6405 30.584ZM88.8246 30.5247L88.8948 30.4947L88.6077 29.8228L88.5375 29.8528L88.8246 30.5247Z" fill="#1F1F31"/>
<path d="M90.2091 40.3996L91.8545 38.4038C92.0211 38.2017 92.3485 38.216 92.5845 38.4357C92.8205 38.6553 92.8769 38.9984 92.7103 39.2005L91.065 41.1963L90.2091 40.3996Z" fill="#1F1F31"/>
<path d="M91.2787 41.1107L95.9331 39.0889V37.221" stroke="#1F1F31" stroke-width="0.709584" stroke-linecap="round" stroke-linejoin="round"/>
<path d="M54.3589 57.0425C53.7901 55.8641 52.5969 55.1151 51.2883 55.1151H47.4775C46.1689 55.1151 44.9757 55.8641 44.4069 57.0425L41.7719 62.501L42.1009 62.6598L41.7719 62.501C41.6157 62.8244 41.8514 63.1998 42.2105 63.1998H42.6401C43.642 63.1998 44.5676 62.6646 45.0674 61.7964L46.341 59.584C46.7322 58.9045 47.4565 58.4857 48.2406 58.4857H50.5252C51.3093 58.4857 52.0336 58.9045 52.4248 59.584L53.6984 61.7964C54.1983 62.6646 55.1238 63.1998 56.1257 63.1998H56.5553C56.9144 63.1998 57.1501 62.8244 56.994 62.501L54.3589 57.0425Z" fill="white" stroke="#1F1F31" stroke-width="0.730643"/>
<rect x="94.6461" y="33.7951" width="1.86379" height="4.8084" rx="0.730643" fill="#1F1F31"/>
<path d="M6.776 35.76V37.132H2.492L2.254 39.568C2.88867 39.2787 3.514 39.134 4.13 39.134C6.10867 39.134 7.098 40.058 7.098 41.906C7.098 42.9513 6.82267 43.754 6.272 44.314C5.73067 44.874 4.96067 45.154 3.962 45.154C3.542 45.154 3.066 45.112 2.534 45.028C2.002 44.9533 1.57733 44.8787 1.26 44.804L0.784 44.678L0.952 43.502C2.05333 43.6887 2.996 43.782 3.78 43.782C4.32133 43.782 4.74133 43.6327 5.04 43.334C5.33867 43.0353 5.488 42.6107 5.488 42.06C5.488 41.5093 5.35733 41.1127 5.096 40.87C4.83467 40.6273 4.494 40.506 4.074 40.506C3.318 40.506 2.702 40.5993 2.226 40.786L1.974 40.884L0.994 40.674L1.246 35.76H6.776ZM10.592 39.302V45H9.07998V39.302H8.26798V38H9.07998V37.552C9.07998 36.5533 9.22465 35.8673 9.51398 35.494C9.80332 35.1207 10.3167 34.934 11.054 34.934L12.566 35.074L12.552 36.32C12.0947 36.3013 11.712 36.292 11.404 36.292C11.1053 36.292 10.8953 36.3853 10.774 36.572C10.6527 36.7493 10.592 37.0807 10.592 37.566V38H12.44V39.302H10.592ZM17.3638 39.302H15.4318V42.382C15.4318 42.9513 15.4738 43.3293 15.5578 43.516C15.6418 43.7027 15.8565 43.796 16.2018 43.796L17.3498 43.754L17.4198 44.972C16.7945 45.0933 16.3185 45.154 15.9918 45.154C15.1985 45.154 14.6525 44.972 14.3538 44.608C14.0645 44.244 13.9198 43.558 13.9198 42.55V39.302H13.0238V38H13.9198V35.97H15.4318V38H17.3638V39.302Z" fill="#828282"/>
<line x1="19.2804" y1="23.7196" x2="23.7996" y2="23.7196" stroke="#828282" stroke-width="0.560702" stroke-linecap="round"/>
<line x1="19.2804" y1="56.0341" x2="23.7996" y2="56.0341" stroke="#828282" stroke-width="0.560702" stroke-linecap="round"/>
<line x1="21.2804" y1="24.2804" x2="21.2803" y2="55.7197" stroke="#828282" stroke-width="0.560702" stroke-linecap="square"/>
</svg>
