<svg width="129" height="72" viewBox="0 0 129 72" fill="none" xmlns="http://www.w3.org/2000/svg">
<path d="M10.901 36.76V38.132H6.617L6.379 40.568C7.01367 40.2787 7.639 40.134 8.255 40.134C10.2337 40.134 11.223 41.058 11.223 42.906C11.223 43.9513 10.9477 44.754 10.397 45.314C9.85567 45.874 9.08567 46.154 8.087 46.154C7.667 46.154 7.191 46.112 6.659 46.028C6.127 45.9533 5.70233 45.8787 5.385 45.804L4.909 45.678L5.077 44.502C6.17833 44.6887 7.121 44.782 7.905 44.782C8.44633 44.782 8.86633 44.6327 9.165 44.334C9.46367 44.0353 9.613 43.6107 9.613 43.06C9.613 42.5093 9.48233 42.1127 9.221 41.87C8.95967 41.6273 8.619 41.506 8.199 41.506C7.443 41.506 6.827 41.5993 6.351 41.786L6.099 41.884L5.119 41.674L5.371 36.76H10.901ZM12.813 46V43.984H14.451V46H12.813ZM22.0846 36.76V38.132H17.8006L17.5626 40.568C18.1973 40.2787 18.8226 40.134 19.4386 40.134C21.4173 40.134 22.4066 41.058 22.4066 42.906C22.4066 43.9513 22.1313 44.754 21.5806 45.314C21.0393 45.874 20.2693 46.154 19.2706 46.154C18.8506 46.154 18.3746 46.112 17.8426 46.028C17.3106 45.9533 16.8859 45.8787 16.5686 45.804L16.0926 45.678L16.2606 44.502C17.3619 44.6887 18.3046 44.782 19.0886 44.782C19.6299 44.782 20.0499 44.6327 20.3486 44.334C20.6473 44.0353 20.7966 43.6107 20.7966 43.06C20.7966 42.5093 20.6659 42.1127 20.4046 41.87C20.1433 41.6273 19.8026 41.506 19.3826 41.506C18.6266 41.506 18.0106 41.5993 17.5346 41.786L17.2826 41.884L16.3026 41.674L16.5546 36.76H22.0846ZM25.9006 40.302V46H24.3886V40.302H23.5766V39H24.3886V38.552C24.3886 37.5533 24.5332 36.8673 24.8226 36.494C25.1119 36.1207 25.6252 35.934 26.3626 35.934L27.8746 36.074L27.8606 37.32C27.4032 37.3013 27.0206 37.292 26.7126 37.292C26.4139 37.292 26.2039 37.3853 26.0826 37.572C25.9612 37.7493 25.9006 38.0807 25.9006 38.566V39H27.7486V40.302H25.9006ZM32.6724 40.302H30.7404V43.382C30.7404 43.9513 30.7824 44.3293 30.8664 44.516C30.9504 44.7027 31.1651 44.796 31.5104 44.796L32.6584 44.754L32.7284 45.972C32.1031 46.0933 31.6271 46.154 31.3004 46.154C30.5071 46.154 29.9611 45.972 29.6624 45.608C29.3731 45.244 29.2284 44.558 29.2284 43.55V40.302H28.3324V39H29.2284V36.97H30.7404V39H32.6724V40.302Z" fill="#828282"/>
<line x1="36.2802" y1="24.7197" x2="40.7994" y2="24.7197" stroke="#828282" stroke-width="0.560702" stroke-linecap="round"/>
<line x1="36.2802" y1="57.0342" x2="40.7994" y2="57.0342" stroke="#828282" stroke-width="0.560702" stroke-linecap="round"/>
<line x1="38.2802" y1="25.2804" x2="38.2802" y2="56.7197" stroke="#828282" stroke-width="0.560702" stroke-linecap="square"/>
<line x1="95.4697" y1="13.1583" x2="95.4697" y2="18.0911" stroke="#828282" stroke-width="0.560702" stroke-linecap="round"/>
<line x1="45.2863" y1="13.1593" x2="45.2863" y2="18.092" stroke="#828282" stroke-width="0.560702" stroke-linecap="round"/>
<line x1="94.909" y1="15.5128" x2="45.2803" y2="15.5128" stroke="#828282" stroke-width="0.560702" stroke-linecap="square"/>
<path d="M60.456 2.25C61.0533 1.82067 61.8653 1.606 62.892 1.606C63.9187 1.606 64.7353 1.82067 65.342 2.25C65.958 2.67 66.266 3.27667 66.266 4.07C66.266 4.63 66.1773 5.05467 66 5.344C65.832 5.624 65.51 5.91333 65.034 6.212C65.51 6.52 65.8553 6.83733 66.07 7.164C66.294 7.48133 66.406 7.92467 66.406 8.494C66.406 9.42733 66.084 10.104 65.44 10.524C64.796 10.944 63.9467 11.154 62.892 11.154C60.5773 11.154 59.42 10.3187 59.42 8.648C59.42 8.02267 59.5273 7.542 59.742 7.206C59.9567 6.87 60.2973 6.53867 60.764 6.212C60.3253 5.92267 60.0173 5.624 59.84 5.316C59.6627 4.99867 59.574 4.57867 59.574 4.056C59.574 3.272 59.868 2.67 60.456 2.25ZM61.086 8.312C61.086 9.27333 61.6927 9.754 62.906 9.754C64.1287 9.754 64.74 9.264 64.74 8.284C64.74 7.64 64.348 7.19667 63.564 6.954H62.22C61.464 7.19667 61.086 7.64933 61.086 8.312ZM64.6 4.294C64.6 3.43533 64.04 3.006 62.92 3.006C61.8 3.006 61.24 3.43533 61.24 4.294C61.24 4.854 61.5667 5.29733 62.22 5.624H63.564C64.2547 5.29733 64.6 4.854 64.6 4.294ZM69.592 5.302V11H68.08V5.302H67.268V4H68.08V3.552C68.08 2.55333 68.2247 1.86733 68.514 1.494C68.8033 1.12067 69.3167 0.933999 70.054 0.933999L71.566 1.074L71.552 2.32C71.0947 2.30133 70.712 2.292 70.404 2.292C70.1053 2.292 69.8953 2.38533 69.774 2.572C69.6527 2.74933 69.592 3.08067 69.592 3.566V4H71.44V5.302H69.592ZM76.3638 5.302H74.4318V8.382C74.4318 8.95133 74.4738 9.32933 74.5578 9.516C74.6418 9.70267 74.8565 9.796 75.2018 9.796L76.3498 9.754L76.4198 10.972C75.7945 11.0933 75.3185 11.154 74.9918 11.154C74.1985 11.154 73.6525 10.972 73.3538 10.608C73.0645 10.244 72.9198 9.558 72.9198 8.55V5.302H72.0238V4H72.9198V1.97H74.4318V4H76.3638V5.302Z" fill="#828282"/>
<path d="M94.7233 65.0224H98.3755V32.2849H94.7233V65.0224Z" fill="#1F1F31"/>
<path d="M94.7361 20H46.2639C45.5659 20 45 20.5591 45 21.2489V57.7511C45 58.4409 45.5659 59 46.2639 59H94.7361C95.4341 59 96 58.4409 96 57.7511V21.2489C96 20.5591 95.4341 20 94.7361 20Z" fill="white" stroke="#1F1F31" stroke-width="0.645702" stroke-miterlimit="10"/>
<path d="M48.983 23.3229H92.017C92.3816 23.3229 92.6772 23.6184 92.6772 23.983V52.017C92.6772 52.3816 92.3816 52.6771 92.017 52.6771H48.983C48.6184 52.6771 48.3229 52.3816 48.3229 52.017V23.983C48.3229 23.6184 48.6184 23.3229 48.983 23.3229Z" stroke="#1F1F31" stroke-width="0.645702"/>
<path d="M106.785 32.2851H98.0526C97.5951 32.2851 97.2222 32.6663 97.2222 33.1384V63.6301C97.2222 64.1002 97.5932 64.4834 98.0526 64.4834H124.073C124.531 64.4834 124.904 64.1021 124.904 63.6301L124.616 52.5944C124.552 50.1846 123.77 47.8539 122.372 45.9162L115.968 37.0375C113.813 34.049 110.407 32.2871 106.787 32.2871L106.785 32.2851Z" fill="white" stroke="#1F1F31" stroke-width="0.645702" stroke-miterlimit="10"/>
<path d="M113.367 63.9874C113.367 64.3567 113.34 64.7202 113.29 65.0737H99.0276C98.9776 64.7202 98.9507 64.3567 98.9507 63.9874C98.9507 62.2294 99.5466 60.6156 100.542 59.3456C101.863 57.6587 103.889 56.5802 106.159 56.5802C108.429 56.5802 110.455 57.6587 111.776 59.3456C112.771 60.6156 113.367 62.2294 113.367 63.9874Z" fill="#1F1F31"/>
<path d="M45.7 60H43.3C43.1343 60 43 60.4713 43 61.0526V62.9474C43 63.5287 43.1343 64 43.3 64H45.7C45.8657 64 46 63.5287 46 62.9474V61.0526C46 60.4713 45.8657 60 45.7 60Z" fill="#1F1F31" stroke="#1F1F31" stroke-width="0.393184" stroke-miterlimit="10"/>
<path d="M104.526 47.4941H102.219C101.9 47.4941 101.642 47.7594 101.642 48.0866V48.2842C101.642 48.6114 101.9 48.8767 102.219 48.8767H104.526C104.844 48.8767 105.102 48.6114 105.102 48.2842V48.0866C105.102 47.7594 104.844 47.4941 104.526 47.4941Z" fill="#1F1F31"/>
<path d="M120 59V65H46.1469C44.9618 65 44 64.0731 44 62.931V59H120Z" fill="#1F1F31"/>
<path d="M114.62 62.5054C114.62 63.4041 114.473 64.2692 114.204 65.0732H99.6571C99.388 64.2692 99.2419 63.4041 99.2419 62.5054C99.2419 61.3815 99.4707 60.3129 99.8839 59.345C101.07 56.554 103.778 54.6044 106.931 54.6044C110.083 54.6044 112.792 56.554 113.978 59.345C114.391 60.3129 114.62 61.3815 114.62 62.5054Z" fill="#1F1F31"/>
<path d="M106.998 70.9988C110.183 70.9988 112.764 68.3458 112.764 65.0731C112.764 61.8004 110.183 59.1474 106.998 59.1474C103.813 59.1474 101.231 61.8004 101.231 65.0731C101.231 68.3458 103.813 70.9988 106.998 70.9988Z" fill="#1F1F31"/>
<path d="M106.977 67.9739C108.51 67.9739 109.752 66.697 109.752 65.1217C109.752 63.5465 108.51 62.2695 106.977 62.2695C105.444 62.2695 104.201 63.5465 104.201 65.1217C104.201 66.697 105.444 67.9739 106.977 67.9739Z" fill="#707582"/>
<path d="M106.974 66.4396C107.682 66.4396 108.256 65.8497 108.256 65.1221C108.256 64.3945 107.682 63.8046 106.974 63.8046C106.266 63.8046 105.692 64.3945 105.692 65.1221C105.692 65.8497 106.266 66.4396 106.974 66.4396Z" fill="#1F1F31"/>
<path d="M105.289 64.3799C105.502 64.3799 105.674 64.203 105.674 63.9848C105.674 63.7667 105.502 63.5898 105.289 63.5898C105.077 63.5898 104.905 63.7667 104.905 63.9848C104.905 64.203 105.077 64.3799 105.289 64.3799Z" fill="#1F1F31"/>
<path d="M108.558 64.3799C108.77 64.3799 108.942 64.203 108.942 63.9848C108.942 63.7667 108.77 63.5898 108.558 63.5898C108.346 63.5898 108.174 63.7667 108.174 63.9848C108.174 64.203 108.346 64.3799 108.558 64.3799Z" fill="#1F1F31"/>
<path d="M105.289 66.75C105.502 66.75 105.674 66.5731 105.674 66.3549C105.674 66.1368 105.502 65.9599 105.289 65.9599C105.077 65.9599 104.905 66.1368 104.905 66.3549C104.905 66.5731 105.077 66.75 105.289 66.75Z" fill="#1F1F31"/>
<path d="M108.558 66.75C108.77 66.75 108.942 66.5731 108.942 66.3549C108.942 66.1368 108.77 65.9599 108.558 65.9599C108.346 65.9599 108.174 66.1368 108.174 66.3549C108.174 66.5731 108.346 66.75 108.558 66.75Z" fill="#1F1F31"/>
<path d="M70.4351 62.9006H59.0345C57.7889 62.9006 56.9931 61.5337 57.5851 60.4058L59.4362 56.8761C59.7226 56.329 60.2801 55.9872 60.8856 55.9872H68.584C69.1895 55.9872 69.7469 56.329 70.0333 56.8761L71.8844 60.4058C72.4765 61.5337 71.6807 62.9006 70.4351 62.9006Z" fill="#1F1F31"/>
<path d="M119.136 59.3456H126.249V61.5717C126.249 63.5055 124.72 65.0738 122.841 65.0738H119.136V59.3456Z" fill="#1F1F31"/>
<path d="M64.7349 70.999C67.9197 70.999 70.5015 68.346 70.5015 65.0733C70.5015 61.8006 67.9197 59.1476 64.7349 59.1476C61.5501 59.1476 58.9683 61.8006 58.9683 65.0733C58.9683 68.346 61.5501 70.999 64.7349 70.999Z" fill="#1F1F31"/>
<path d="M64.7137 67.9752C66.2466 67.9752 67.4893 66.6982 67.4893 65.123C67.4893 63.5477 66.2466 62.2707 64.7137 62.2707C63.1807 62.2707 61.938 63.5477 61.938 65.123C61.938 66.6982 63.1807 67.9752 64.7137 67.9752Z" fill="#707582"/>
<path d="M64.7131 66.439C65.4212 66.439 65.9952 65.8491 65.9952 65.1215C65.9952 64.3938 65.4212 63.804 64.7131 63.804C64.005 63.804 63.431 64.3938 63.431 65.1215C63.431 65.8491 64.005 66.439 64.7131 66.439Z" fill="#1F1F31"/>
<path d="M63.0508 64.3822C63.2631 64.3822 63.4352 64.2053 63.4352 63.9871C63.4352 63.7689 63.2631 63.5921 63.0508 63.5921C62.8385 63.5921 62.6663 63.7689 62.6663 63.9871C62.6663 64.2053 62.8385 64.3822 63.0508 64.3822Z" fill="#1F1F31"/>
<path d="M66.3192 64.3822C66.5315 64.3822 66.7037 64.2053 66.7037 63.9871C66.7037 63.7689 66.5315 63.5921 66.3192 63.5921C66.1069 63.5921 65.9348 63.7689 65.9348 63.9871C65.9348 64.2053 66.1069 64.3822 66.3192 64.3822Z" fill="#1F1F31"/>
<path d="M63.0505 66.7532C63.2629 66.7532 63.435 66.5764 63.435 66.3582C63.435 66.14 63.2629 65.9631 63.0505 65.9631C62.8382 65.9631 62.6661 66.14 62.6661 66.3582C62.6661 66.5764 62.8382 66.7532 63.0505 66.7532Z" fill="#1F1F31"/>
<path d="M66.3191 66.7532C66.5314 66.7532 66.7035 66.5764 66.7035 66.3582C66.7035 66.14 66.5314 65.9631 66.3191 65.9631C66.1068 65.9631 65.9346 66.14 65.9346 66.3582C65.9346 66.5764 66.1068 66.7532 66.3191 66.7532Z" fill="#1F1F31"/>
<path d="M118.43 46.597V47.395C118.43 47.5135 118.409 47.6281 118.371 47.7348C118.238 48.112 117.884 48.3827 117.469 48.3827H113.63C113.309 48.3827 113.01 48.2187 112.833 47.9441L112.392 47.2706C112.31 47.1442 112.225 47.0217 112.137 46.9012C111.691 46.279 111.17 45.7161 110.589 45.2243L109.969 44.6969C109.796 44.5507 109.58 44.4717 109.357 44.4717H102.026C101.496 44.4717 101.065 44.0292 101.065 43.4841V36.8275C101.065 36.2824 101.496 35.8399 102.026 35.8399H110.103C110.366 35.8399 110.618 35.9505 110.799 36.1461L113.01 38.5341C114.27 39.8951 115.397 41.3804 116.373 42.9685L116.921 43.8574L118.282 46.0677C118.328 46.1427 118.365 46.2257 118.388 46.3106C118.417 46.4035 118.43 46.5003 118.43 46.597Z" fill="#9499A3" stroke="#1F1F31" stroke-width="0.645702" stroke-miterlimit="10"/>
<path d="M38 71L128 71" stroke="#1F1F31" stroke-width="0.645089" stroke-linecap="round" stroke-linejoin="round"/>
<path d="M111.294 45.8466L113.708 43.0148C113.952 42.7281 114.378 42.6991 114.657 42.9504C114.936 43.2016 114.964 43.6392 114.72 43.9259L112.306 46.7577L111.294 45.8466Z" fill="#1F1F31"/>
<path d="M118.348 46.9023H117.425C117.202 46.9023 117.021 47.088 117.021 47.3171V49.4503C117.021 49.6794 117.202 49.8651 117.425 49.8651H118.348C118.57 49.8651 118.751 49.6794 118.751 49.4503V47.3171C118.751 47.088 118.57 46.9023 118.348 46.9023Z" fill="#1F1F31"/>
<path d="M118.388 46.3106L118.371 47.7348C118.238 48.112 117.885 48.3826 117.47 48.3826H113.631C113.31 48.3826 113.01 48.2187 112.833 47.9441L112.393 47.2706C112.31 47.1442 112.226 47.0217 112.137 46.9012L116.922 43.8574L118.283 46.0677C118.329 46.1427 118.365 46.2257 118.388 46.3106Z" fill="#1F1F31"/>
<path d="M116.387 45.124H116.987C117.959 45.124 118.751 45.9358 118.751 46.9372V47.8794C118.751 48.2113 118.488 48.4819 118.165 48.4819H115.416C115.093 48.4819 114.83 48.2113 114.83 47.8794V46.7259C114.83 45.843 115.528 45.126 116.387 45.126V45.124Z" fill="#1F1F31"/>
<path d="M102.558 39.1972C103.538 39.1972 104.334 40.015 104.334 41.0223V43.924C104.334 44.2597 104.068 44.5304 103.744 44.5304H101.581C101.254 44.5304 100.991 44.2578 100.991 43.924V40.809C100.991 39.9202 101.694 39.1972 102.559 39.1972H102.558Z" fill="#1F1F31"/>
<path d="M91.3224 61.3203H85.6326C85.2398 61.3203 84.9214 61.8556 84.9214 62.5159V64.6678C84.9214 65.3281 85.2398 65.8634 85.6326 65.8634H91.3224C91.7152 65.8634 92.0336 65.3281 92.0336 64.6678V62.5159C92.0336 61.8556 91.7152 61.3203 91.3224 61.3203Z" fill="white" stroke="#1F1F31" stroke-width="0.645702" stroke-miterlimit="10"/>
<path d="M124.811 53.9316C125.889 54.0757 126.72 54.9988 126.72 56.116V56.6489C126.72 57.7661 125.889 58.6892 124.811 58.8333V53.9316Z" fill="#1F1F31" stroke="#1F1F31" stroke-width="0.589776"/>
</svg>
